<svg xmlns="http://www.w3.org/2000/svg" xmlns:xlink="http://www.w3.org/1999/xlink" width="500" zoomAndPan="magnify" viewBox="0 0 375 374.999991" height="500" preserveAspectRatio="xMidYMid meet" version="1.0"><defs><g/></defs><g fill="#305252" fill-opacity="1"><g transform="translate(1.286177, 177.203823)"><g><path d="M 56.96875 1.03125 C 76.015625 -4.25 81.28125 -21.09375 81.28125 -47.75 C 81.28125 -48.921875 80.40625 -49.796875 79.234375 -49.796875 L 45.546875 -49.796875 C 44.375 -49.796875 43.5 -48.921875 43.5 -47.75 L 43.5 -41.734375 C 43.5 -40.5625 44.375 -39.6875 45.546875 -39.6875 L 49.640625 -39.6875 C 50.09375 -39.6875 50.671875 -39.25 50.671875 -38.65625 C 48.625 -18.890625 34.421875 -27.234375 34.265625 -48.625 L 34.265625 -49.359375 C 34.265625 -64.875 36.171875 -76.59375 45.109375 -72.78125 C 48.03125 -71.03125 48.328125 -63.703125 48.328125 -61.953125 C 48.46875 -59.015625 51.109375 -56.53125 54.046875 -56.96875 L 73.8125 -57.5625 C 76.890625 -58 78.796875 -59.609375 78.9375 -62.53125 C 79.53125 -75.859375 78.9375 -96.8125 54.625 -103.390625 C 27.390625 -111.15625 5.71875 -93.578125 1.03125 -63.703125 C -1.609375 -45.984375 1.03125 -26.21875 9.953125 -13.625 C 20.203125 0.578125 39.984375 5.71875 56.96875 1.03125 Z M 56.96875 1.03125 "/></g></g></g><g fill="#305252" fill-opacity="1"><g transform="translate(88.421781, 177.203823)"><g><path d="M 5.125 0.4375 C 34.125 0.4375 33.828125 2.34375 35.734375 -8.0625 L 36.609375 -12.59375 L 55.21875 -12.59375 L 56.09375 -8.0625 C 58 2.34375 57.703125 0.4375 86.703125 0.4375 C 88.609375 0.4375 90.0625 -0.4375 90.953125 -1.90625 C 92.40625 -4.25 91.671875 -4.828125 91.09375 -8.34375 L 69.421875 -98.5625 C 68.6875 -101.484375 67.078125 -104.28125 64.296875 -104.28125 L 27.53125 -104.28125 C 24.75 -104.28125 23.140625 -101.484375 22.40625 -98.5625 L 0.734375 -8.34375 C 0.140625 -4.828125 -0.578125 -4.25 0.875 -1.90625 C 1.75 -0.4375 3.21875 0.4375 5.125 0.4375 Z M 41.59375 -40.859375 L 45.984375 -65.171875 L 50.234375 -40.859375 Z M 41.59375 -40.859375 "/></g></g></g><g fill="#305252" fill-opacity="1"><g transform="translate(186.101526, 177.203823)"><g><path d="M 5.125 0 L 30.015625 0 C 32.65625 0 35.296875 -2.203125 35.296875 -5.859375 L 35.875 -39.25 L 45.40625 -19.328125 C 46.125 -17.71875 47.75 -15.234375 50.234375 -15.234375 L 58.28125 -15.234375 C 60.78125 -15.234375 62.390625 -17.71875 63.125 -19.328125 L 72.640625 -39.25 L 73.234375 -5.859375 C 73.234375 -2.203125 75.859375 0 78.5 0 L 103.390625 0 C 106.03125 0 108.515625 -3.21875 108.515625 -5.859375 L 108.234375 -99.296875 C 108.234375 -103.109375 105.734375 -105.15625 103.109375 -105.15625 L 76.890625 -105 C 74.6875 -105 72.78125 -103.546875 71.90625 -101.484375 L 54.328125 -58.734375 L 36.609375 -101.484375 C 35.734375 -103.546875 33.828125 -105 31.640625 -105 L 5.421875 -105.15625 C 2.78125 -105.15625 0.296875 -103.109375 0.296875 -99.296875 L 0 -5.859375 C 0 -3.21875 2.484375 0 5.125 0 Z M 5.125 0 "/></g></g></g><g fill="#305252" fill-opacity="1"><g transform="translate(300.476157, 177.203823)"><g><path d="M 5.265625 0 L 21.09375 -0.140625 C 21.53125 0 22.109375 0 22.546875 0 L 61.65625 -0.4375 C 63.265625 -0.4375 64.578125 -0.875 65.75 -1.90625 C 66.78125 -2.921875 67.375 -4.09375 67.375 -5.5625 L 67.375 -27.390625 C 67.375 -28.703125 66.78125 -29.734375 65.609375 -30.75 C 64.4375 -31.78125 63.125 -32.21875 61.65625 -32.359375 L 35.15625 -33.53125 L 34.859375 -39.390625 L 49.359375 -40.125 C 50.53125 -40.28125 51.546875 -40.5625 52.578125 -41.296875 C 53.609375 -42.03125 54.046875 -42.765625 54.046875 -43.796875 L 54.78125 -59.453125 C 54.921875 -60.625 54.484375 -61.515625 53.453125 -62.25 C 52.4375 -62.96875 51.40625 -63.265625 50.09375 -63.265625 L 34.265625 -63.421875 L 33.984375 -70.734375 L 61.65625 -72.0625 C 63.125 -72.203125 64.4375 -72.640625 65.609375 -73.671875 C 66.78125 -74.6875 67.375 -75.71875 67.375 -77.03125 L 67.375 -98.859375 C 67.375 -100.328125 66.78125 -101.484375 65.75 -102.515625 C 64.578125 -103.546875 63.265625 -103.984375 61.65625 -103.984375 L 4.984375 -104.125 C 3.65625 -104.125 2.640625 -103.546875 1.609375 -102.375 C 0.578125 -101.203125 0 -99.875 0 -98.421875 L 0.296875 -5.71875 C 0.296875 -4.09375 0.734375 -2.640625 1.75 -1.609375 C 2.78125 -0.578125 3.953125 0 5.265625 0 Z M 5.265625 0 "/></g></g></g><g fill="#305252" fill-opacity="1"><g transform="translate(10.79942, 285.788092)"><g><path d="M 29 -0.140625 C 39.6875 3.21875 56.671875 2.34375 66.640625 -4.546875 C 81.28125 -14.5 85.828125 -30.171875 85.828125 -48.03125 C 84.9375 -71.46875 81.28125 -88.75 66.640625 -98.859375 C 56.671875 -105.59375 39.6875 -106.625 29 -103.109375 C 7.90625 -95.921875 0.875 -75.5625 0 -46.859375 C 0.875 -18.15625 7.765625 -7.03125 29 -0.140625 Z M 33.6875 -50.234375 C 33.53125 -82.3125 52.4375 -79.96875 52.4375 -49.0625 C 51.546875 -25.1875 33.984375 -25.921875 33.6875 -50.234375 Z M 33.6875 -50.234375 "/></g></g></g><g fill="#305252" fill-opacity="1"><g transform="translate(102.474852, 285.788092)"><g><path d="M 27.53125 0.578125 L 64.296875 0.578125 C 67.078125 0.578125 68.6875 -2.203125 69.421875 -5.125 L 91.09375 -94.3125 C 91.671875 -97.828125 92.40625 -98.265625 90.953125 -100.609375 C 90.0625 -102.078125 88.609375 -102.953125 86.703125 -102.953125 C 57.703125 -102.953125 58 -104.859375 56.09375 -94.609375 L 45.984375 -38.078125 L 35.734375 -94.609375 C 33.828125 -104.859375 34.125 -102.953125 5.125 -102.953125 C 3.21875 -102.953125 1.75 -102.078125 0.875 -100.609375 C -0.578125 -98.265625 0.140625 -97.828125 0.734375 -94.3125 L 22.40625 -5.125 C 23.140625 -2.203125 24.75 0.578125 27.53125 0.578125 Z M 27.53125 0.578125 "/></g></g></g><g fill="#305252" fill-opacity="1"><g transform="translate(200.154596, 285.788092)"><g><path d="M 5.265625 0 L 21.09375 -0.140625 C 21.53125 0 22.109375 0 22.546875 0 L 61.65625 -0.4375 C 63.265625 -0.4375 64.578125 -0.875 65.75 -1.90625 C 66.78125 -2.921875 67.375 -4.09375 67.375 -5.5625 L 67.375 -27.390625 C 67.375 -28.703125 66.78125 -29.734375 65.609375 -30.75 C 64.4375 -31.78125 63.125 -32.21875 61.65625 -32.359375 L 35.15625 -33.53125 L 34.859375 -39.390625 L 49.359375 -40.125 C 50.53125 -40.28125 51.546875 -40.5625 52.578125 -41.296875 C 53.609375 -42.03125 54.046875 -42.765625 54.046875 -43.796875 L 54.78125 -59.453125 C 54.921875 -60.625 54.484375 -61.515625 53.453125 -62.25 C 52.4375 -62.96875 51.40625 -63.265625 50.09375 -63.265625 L 34.265625 -63.421875 L 33.984375 -70.734375 L 61.65625 -72.0625 C 63.125 -72.203125 64.4375 -72.640625 65.609375 -73.671875 C 66.78125 -74.6875 67.375 -75.71875 67.375 -77.03125 L 67.375 -98.859375 C 67.375 -100.328125 66.78125 -101.484375 65.75 -102.515625 C 64.578125 -103.546875 63.265625 -103.984375 61.65625 -103.984375 L 4.984375 -104.125 C 3.65625 -104.125 2.640625 -103.546875 1.609375 -102.375 C 0.578125 -101.203125 0 -99.875 0 -98.421875 L 0.296875 -5.71875 C 0.296875 -4.09375 0.734375 -2.640625 1.75 -1.609375 C 2.78125 -0.578125 3.953125 0 5.265625 0 Z M 5.265625 0 "/></g></g></g><g fill="#305252" fill-opacity="1"><g transform="translate(273.377785, 285.788092)"><g><path d="M 77.90625 0.734375 C 83.484375 0.875 84.9375 -2.046875 82.59375 -6.734375 C 77.1875 -17.578125 73.375 -25.625 70.296875 -31.921875 C 73.671875 -33.828125 76.59375 -36.328125 79.078125 -39.390625 C 86.546875 -48.46875 85.375 -68.6875 83.328125 -78.359375 C 77.765625 -103.6875 56.671875 -103.25 25.78125 -102.953125 L 4.984375 -102.953125 C 2.34375 -102.953125 0 -99.875 0 -97.25 L 0.296875 -5.71875 C 0.296875 -2.484375 2.484375 0 5.265625 0 L 30.75 -0.140625 C 33.25 -0.140625 36.171875 -2.640625 35.875 -6 L 35.296875 -24.609375 L 38.078125 -24.609375 L 47.015625 -4.6875 C 48.765625 -1.46875 50.53125 0.578125 53.609375 0.578125 C 64.578125 0.578125 72.203125 0.578125 77.90625 0.734375 Z M 33.984375 -69.421875 C 41.453125 -69.265625 47.59375 -69.859375 49.640625 -68.25 C 55.65625 -63.265625 51.84375 -54.1875 41.734375 -54.1875 L 34.421875 -54.1875 Z M 33.984375 -69.421875 "/></g></g></g></svg>