<svg xmlns="http://www.w3.org/2000/svg" xmlns:xlink="http://www.w3.org/1999/xlink" width="500" zoomAndPan="magnify" viewBox="0 0 375 374.999991" height="500" preserveAspectRatio="xMidYMid meet" version="1.0"><defs><g/></defs><g fill="#305252" fill-opacity="1"><g transform="translate(4.789889, 177.203823)"><g><path d="M 59.90625 0.875 C 85.234375 -6 85.96875 -27.234375 85.375 -40.5625 C 85.234375 -43.796875 83.328125 -45.40625 79.96875 -45.84375 L 59.171875 -46.421875 C 56.09375 -46.859375 53.3125 -44.375 53.15625 -41.453125 C 53.15625 -39.390625 52.875 -32.078125 49.796875 -30.3125 C 40.5625 -26.359375 36.171875 -34.421875 36.03125 -49.796875 L 36.03125 -50.53125 C 36.03125 -66.34375 37.9375 -78.359375 47.296875 -74.390625 C 50.53125 -72.640625 50.8125 -65.171875 50.8125 -63.421875 C 50.96875 -60.34375 53.75 -57.84375 56.828125 -58.28125 L 77.625 -58.875 C 80.84375 -59.3125 82.75 -60.921875 82.890625 -64 C 83.625 -77.625 82.890625 -99 57.40625 -105.59375 C 28.703125 -113.640625 6 -95.640625 1.03125 -65.171875 C -1.75 -47.015625 1.03125 -26.953125 10.390625 -14.0625 C 21.234375 0.4375 42.03125 5.71875 59.90625 0.875 Z M 59.90625 0.875 "/></g></g></g><g fill="#305252" fill-opacity="1"><g transform="translate(96.172428, 177.203823)"><g><path d="M 5.125 0.4375 C 34.125 0.4375 33.828125 2.34375 35.734375 -8.0625 L 36.609375 -12.59375 L 55.21875 -12.59375 L 56.09375 -8.0625 C 58 2.34375 57.703125 0.4375 86.703125 0.4375 C 88.609375 0.4375 90.0625 -0.4375 90.953125 -1.90625 C 92.40625 -4.25 91.671875 -4.828125 91.09375 -8.34375 L 69.421875 -98.5625 C 68.6875 -101.484375 67.078125 -104.28125 64.296875 -104.28125 L 27.53125 -104.28125 C 24.75 -104.28125 23.140625 -101.484375 22.40625 -98.5625 L 0.734375 -8.34375 C 0.140625 -4.828125 -0.578125 -4.25 0.875 -1.90625 C 1.75 -0.4375 3.21875 0.4375 5.125 0.4375 Z M 41.59375 -40.859375 L 45.984375 -65.171875 L 50.234375 -40.859375 Z M 41.59375 -40.859375 "/></g></g></g><g fill="#305252" fill-opacity="1"><g transform="translate(193.852172, 177.203823)"><g><path d="M 77.90625 0.734375 C 83.484375 0.875 84.9375 -2.046875 82.59375 -6.734375 C 77.1875 -17.578125 73.375 -25.625 70.296875 -31.921875 C 73.671875 -33.828125 76.59375 -36.328125 79.078125 -39.390625 C 86.546875 -48.46875 85.375 -68.6875 83.328125 -78.359375 C 77.765625 -103.6875 56.671875 -103.25 25.78125 -102.953125 L 4.984375 -102.953125 C 2.34375 -102.953125 0 -99.875 0 -97.25 L 0.296875 -5.71875 C 0.296875 -2.484375 2.484375 0 5.265625 0 L 30.75 -0.140625 C 33.25 -0.140625 36.171875 -2.640625 35.875 -6 L 35.296875 -24.609375 L 38.078125 -24.609375 L 47.015625 -4.6875 C 48.765625 -1.46875 50.53125 0.578125 53.609375 0.578125 C 64.578125 0.578125 72.203125 0.578125 77.90625 0.734375 Z M 33.984375 -69.421875 C 41.453125 -69.265625 47.59375 -69.859375 49.640625 -68.25 C 55.65625 -63.265625 51.84375 -54.1875 41.734375 -54.1875 L 34.421875 -54.1875 Z M 33.984375 -69.421875 "/></g></g></g><g fill="#305252" fill-opacity="1"><g transform="translate(284.648926, 177.203823)"><g><path d="M 5.125 1.46875 C 34.421875 3.078125 58.4375 3.21875 69.125 -5.421875 C 74.109375 -9.515625 77.1875 -15.375 78.640625 -21.53125 C 82.015625 -35.4375 76.734375 -47.453125 62.6875 -54.1875 C 57.703125 -56.390625 52.140625 -58.28125 48.625 -60.046875 C 42.46875 -63.125 43.9375 -68.09375 48.625 -70.296875 C 52.71875 -72.203125 63.265625 -70.890625 70 -70.890625 C 73.953125 -70.890625 76.296875 -72.78125 76.296875 -76.15625 C 76.59375 -96.515625 76.890625 -99.296875 75.125 -101.484375 C 72.5 -104.71875 49.359375 -104.71875 42.765625 -104.421875 C 32.21875 -103.984375 18.75 -103.109375 10.6875 -96.65625 C 2.484375 -90.21875 0 -81.71875 0 -71.171875 C 0 -56.96875 8.203125 -50.234375 27.09375 -43.203125 C 36.90625 -39.546875 36.609375 -32.078125 26.65625 -31.640625 C 18.75 -31.34375 1.171875 -34.421875 1.171875 -27.09375 L 1.171875 -5.421875 C 1.171875 -1.90625 2.046875 0.734375 5.125 1.46875 Z M 5.125 1.46875 "/></g></g></g><g fill="#305252" fill-opacity="1"><g transform="translate(33.484847, 285.788106)"><g><path d="M 70 12.59375 C 75.28125 12.734375 76.59375 9.8125 74.390625 5.125 C 72.34375 0.578125 70.4375 -3.515625 68.6875 -7.171875 C 80.40625 -17.140625 84.0625 -31.640625 84.0625 -48.03125 C 83.1875 -71.46875 79.671875 -88.75 65.3125 -98.859375 C 55.5 -105.59375 38.8125 -106.625 28.40625 -103.109375 C 7.765625 -95.921875 0.875 -75.5625 0 -46.859375 C 0.875 -18.15625 7.609375 -7.03125 28.40625 -0.140625 C 31.484375 0.875 35.15625 1.46875 39.109375 1.75 L 41.296875 7.171875 C 42.90625 10.390625 44.671875 12.453125 47.453125 12.453125 C 57.703125 12.453125 64.734375 12.453125 70 12.59375 Z M 32.953125 -50.234375 C 32.8125 -82.3125 51.40625 -79.96875 51.40625 -49.0625 C 50.53125 -25.1875 33.25 -25.921875 32.953125 -50.234375 Z M 32.953125 -50.234375 "/></g></g></g><g fill="#305252" fill-opacity="1"><g transform="translate(123.402921, 285.788106)"><g><path d="M 29.578125 -0.578125 C 40.28125 3.078125 57.5625 2.046875 67.515625 -4.984375 C 86.703125 -18.890625 87.28125 -50.234375 87.28125 -83.625 C 87.28125 -106.625 86.109375 -103.828125 57.109375 -103.828125 C 51.109375 -103.828125 51.84375 -97.53125 52.140625 -89.484375 C 52.140625 -79.53125 52.28125 -63.5625 51.546875 -51.109375 C 51.109375 -39.984375 44.8125 -27.234375 39.25 -35.4375 C 36.328125 -40.125 36.765625 -80.984375 37.34375 -98.265625 C 37.34375 -101.34375 34.859375 -103.828125 31.921875 -103.546875 L 6.296875 -103.546875 C 3.21875 -103.25 1.3125 -101.484375 1.03125 -98.5625 C -1.75 -48.625 -0.4375 -10.25 29.578125 -0.578125 Z M 29.578125 -0.578125 "/></g></g></g><g fill="#305252" fill-opacity="1"><g transform="translate(216.542817, 285.788106)"><g><path d="M 32.21875 0 C 35.296875 0 37.9375 -2.640625 37.9375 -5.71875 L 39.6875 -96.65625 C 39.828125 -100.03125 36.90625 -102.515625 33.984375 -102.515625 L 5.859375 -102.65625 C 2.78125 -102.65625 0.296875 -100.328125 0.296875 -96.953125 L 0 -5.71875 C 0 -2.78125 2.640625 0 5.5625 0 Z M 32.21875 0 "/></g></g></g><g fill="#305252" fill-opacity="1"><g transform="translate(262.087651, 285.788106)"><g><path d="M 6.15625 0.734375 L 66.640625 0.875 C 69.859375 0.875 72.34375 -1.171875 72.34375 -4.25 L 72.5 -24.015625 C 72.5 -27.390625 70 -30.015625 66.78125 -30.015625 L 43.203125 -29.875 C 73.515625 -71.90625 73.515625 -71.171875 73.515625 -74.109375 L 73.515625 -98.265625 C 73.515625 -101.484375 71.03125 -103.828125 67.953125 -103.828125 L 5.5625 -103.984375 C 2.203125 -103.984375 -0.140625 -101.203125 0 -98.421875 L 0.734375 -76.890625 C 0.875 -73.953125 3.515625 -71.46875 6.4375 -71.46875 L 34.125 -71.609375 L 1.609375 -29.734375 C 0.875 -28.703125 0.4375 -27.53125 0.4375 -26.21875 L 0.578125 -4.6875 C 0.578125 -1.609375 3.078125 0.734375 6.15625 0.734375 Z M 6.15625 0.734375 "/></g></g></g></svg>